<svg id="Layer_1" data-name="Layer 1" xmlns="http://www.w3.org/2000/svg" xmlns:xlink="http://www.w3.org/1999/xlink" viewBox="0 0 488.29 103.66"><defs><style>.cls-1,.cls-2,.cls-5{fill:#012169;}.cls-1,.cls-3{clip-rule:evenodd;}.cls-24,.cls-3,.cls-4{fill:red;}.cls-24,.cls-5{fill-rule:evenodd;}.cls-6{clip-path:url(#clip-path);}.cls-7{clip-path:url(#clip-path-2);}.cls-8{clip-path:url(#clip-path-3);}.cls-9{isolation:isolate;}.cls-10{clip-path:url(#clip-path-5);}.cls-11{clip-path:url(#clip-path-6);}.cls-12{clip-path:url(#clip-path-7);}.cls-13{clip-path:url(#clip-path-9);}.cls-14{clip-path:url(#clip-path-11);}.cls-15{clip-path:url(#clip-path-13);}.cls-16{clip-path:url(#clip-path-15);}.cls-17{clip-path:url(#clip-path-16);}.cls-18{clip-path:url(#clip-path-17);}.cls-19{clip-path:url(#clip-path-19);}.cls-20{clip-path:url(#clip-path-21);}.cls-21{clip-path:url(#clip-path-23);}.cls-22{clip-path:url(#clip-path-25);}.cls-23{clip-path:url(#clip-path-27);}.cls-25{clip-path:url(#clip-path-29);}.cls-26{clip-path:url(#clip-path-30);}.cls-27{clip-path:url(#clip-path-31);}.cls-28{clip-path:url(#clip-path-33);}.cls-29{clip-path:url(#clip-path-35);}.cls-30{clip-path:url(#clip-path-37);}.cls-31{clip-path:url(#clip-path-39);}.cls-32{clip-path:url(#clip-path-41);}.cls-33{clip-path:url(#clip-path-43);}</style><clipPath id="clip-path"><path class="cls-1" d="M198.26,60h6.79l1.54,8.87c.19,1.12.35,2.34.48,3.58A20.1,20.1,0,0,1,208.35,69l4.09-9h6.76l.54,22.89h-5.63L214,71.93c0-1.05,0-2.27.13-3.61a21.75,21.75,0,0,1-1.41,3.39l-5.21,11.14h-3.72l-2.14-11.11c-.19-1-.39-2.14-.55-3.42-.22,1.34-.48,2.56-.76,3.61l-3.17,10.92h-6l7-22.89"/></clipPath><clipPath id="clip-path-2"><rect class="cls-2" x="0.1" y="-0.54" width="485" height="109"/></clipPath><clipPath id="clip-path-3"><path class="cls-1" d="M231.71,60h7.65l4.87,22.89H238l-.93-4.32h-8l-2.18,4.32h-6.66Zm4.51,13.48-1.05-5.35a17.62,17.62,0,0,1-.32-2.59c-.51,1.44-.87,2.34-1,2.69l-2.43,5.25Z"/></clipPath><clipPath id="clip-path-5"><path class="cls-1" d="M248.45,60h7l4.83,11.3A21,21,0,0,1,261.57,75v-.58a23.32,23.32,0,0,1,.29-3.23L263.62,60h6.11l-3.61,22.89H259.4L254.28,71.2a20.52,20.52,0,0,1-1.35-3.75v.64a24.06,24.06,0,0,1-.26,3.17L251,82.85h-6.12L248.45,60"/></clipPath><clipPath id="clip-path-6"><rect class="cls-2" x="244.1" y="59.46" width="48" height="25"/></clipPath><clipPath id="clip-path-7"><path class="cls-1" d="M278.22,60l-1.83,11.49a22.19,22.19,0,0,0-.38,3.36,2.85,2.85,0,0,0,3.13,3.11c3.59,0,4-3.14,5.06-9.64L285.51,60h6.15l-2.05,13a16.71,16.71,0,0,1-1.7,6c-1.69,3-4.86,4.58-9.12,4.58-5.47,0-9-2.85-9-7.17a49.44,49.44,0,0,1,.73-6.62L272.07,60h6.15"/></clipPath><clipPath id="clip-path-9"><polyline class="cls-1" points="294.03 59.96 307.25 59.96 306.41 65.21 299.31 65.21 298.7 68.99 305.36 68.99 304.56 73.92 297.93 73.92 296.52 82.85 290.41 82.85 294.03 59.96"/></clipPath><clipPath id="clip-path-11"><path class="cls-1" d="M313.47,60h7.65L326,82.85h-6.21l-.93-4.32h-8l-2.18,4.32H302ZM318,73.44l-1.06-5.35a17.62,17.62,0,0,1-.32-2.59c-.51,1.44-.86,2.34-1,2.69l-2.44,5.25Z"/></clipPath><clipPath id="clip-path-13"><path class="cls-1" d="M344.9,67.36a9.23,9.23,0,0,0-6.08-2.31c-3.77,0-6.53,2.91-6.53,7,0,3.68,2.12,5.83,5.93,5.83a13.46,13.46,0,0,0,5.21-1.18l-1,5.92a18.35,18.35,0,0,1-5.63.76c-6.59,0-10.79-4.44-10.79-11.07a13.51,13.51,0,0,1,3-8.61c2.27-2.78,5.76-4.32,10.05-4.32a14.83,14.83,0,0,1,6.85,1.63l-1,6.31"/></clipPath><clipPath id="clip-path-15"><polyline class="cls-1" points="352.01 65.28 346.89 65.28 347.75 59.96 363.92 59.96 363.05 65.28 358.15 65.28 355.37 82.85 349.23 82.85 352.01 65.28"/></clipPath><clipPath id="clip-path-16"><rect class="cls-2" x="346.1" y="59.46" width="40" height="25"/></clipPath><clipPath id="clip-path-17"><path class="cls-1" d="M371.73,60,369.9,71.45a22.19,22.19,0,0,0-.38,3.36,2.85,2.85,0,0,0,3.13,3.11c3.59,0,4-3.14,5.06-9.64L379,60h6.15l-2.05,13a16.71,16.71,0,0,1-1.7,6c-1.69,3-4.86,4.58-9.12,4.58-5.47,0-9-2.85-9-7.17a49.44,49.44,0,0,1,.73-6.62L365.58,60h6.15"/></clipPath><clipPath id="clip-path-19"><path class="cls-1" d="M383.92,82.85,387.54,60h6.08c2.65,0,4.73.07,6.43.87a6,6,0,0,1,3.52,5.82c0,3.75-2.33,6.5-6.37,7.17l5.57,9h-7l-4.41-8.74L390,82.85Zm9.95-12.42c2.44,0,3.75-1.15,3.75-3.23s-1.25-2.79-3.81-2.79h-.9l-1,6Z"/></clipPath><clipPath id="clip-path-21"><polyline class="cls-1" points="407.22 59.96 413.46 59.96 409.84 82.85 403.6 82.85 407.22 59.96"/></clipPath><clipPath id="clip-path-23"><path class="cls-1" d="M416.05,60h7l4.83,11.3A20.88,20.88,0,0,1,429.18,75v-.58a23.25,23.25,0,0,1,.28-3.23L431.22,60h6.12l-3.62,22.89H427L421.88,71.2a20.52,20.52,0,0,1-1.35-3.75v.64a24.11,24.11,0,0,1-.25,3.17l-1.73,11.59h-6.11L416.05,60"/></clipPath><clipPath id="clip-path-25"><path class="cls-1" d="M461.31,70.4c-.19,8.25-4.8,13.06-12.1,13.06S437.4,79.14,437.4,72.57a13.46,13.46,0,0,1,3.81-9.5,13,13,0,0,1,9.34-3.62,11.11,11.11,0,0,1,10,5.35l-4.87,3.33a5.49,5.49,0,0,0-5.12-3.08c-3.83,0-6.62,3.11-6.62,7.33,0,3.55,2.21,5.79,5.41,5.79a6.08,6.08,0,0,0,3.2-.83,4.21,4.21,0,0,0,1.76-2.27h-5.22l.74-4.67h11.49"/></clipPath><clipPath id="clip-path-27"><polyline class="cls-1" points="98.68 59.99 193.88 59.99 190.96 69.61 98.68 69.61 98.68 59.99"/></clipPath><clipPath id="clip-path-29"><polyline class="cls-3" points="98.68 73.16 189.84 73.16 186.91 82.83 98.68 82.84 98.68 73.16"/></clipPath><clipPath id="clip-path-30"><rect class="cls-4" x="0.1" y="-0.54" width="485" height="109"/></clipPath><clipPath id="clip-path-31"><path class="cls-3" d="M29.46,24.53a4.31,4.31,0,0,1,4.22,4.38c0,.26,0,13.75,0,14.28a4.82,4.82,0,0,0,5,4.79,5.28,5.28,0,0,0,5-4.79c0-.79,0-14.08,0-14.28A4.21,4.21,0,0,1,48,24.51a4.36,4.36,0,0,1,4.27,4.4c0,.17,0,14.3,0,14.3a13.46,13.46,0,0,1-13.5,13.23c-7.31,0-13.61-6-13.61-13.23,0-1,0-14.3,0-14.3a4.33,4.33,0,0,1,4.34-4.38"/></clipPath><clipPath id="clip-path-33"><path class="cls-3" d="M60.2,24.51a4.16,4.16,0,0,1,3.5,1.85c.16.23,10.13,13.3,10.6,13.85-.06-.34,0-11,0-11.3a4.25,4.25,0,0,1,4.17-4.4,4.33,4.33,0,0,1,4.27,4.4c0,.83,0,0,0,23.28a4.4,4.4,0,0,1-4.36,4.25c-2.17,0-3-1-5.12-4.15-.17-.25-8.38-10.92-8.71-11.55,0,0,.07,10.5,0,11.38a4.35,4.35,0,0,1-4.3,4.36A4.17,4.17,0,0,1,56,52.23c0-23.32,0-.06,0-23.46a4.14,4.14,0,0,1,4.19-4.26"/></clipPath><clipPath id="clip-path-35"><path class="cls-3" d="M102.71,24.51c.51,0,9.75-.05,10.24,0,7.18,0,11.33,4.72,11.33,11.34,0,6-4.64,10.4-9.61,10.4-3.86,0-6.48-2.38-6.48-4.23a2.94,2.94,0,0,1,3-3.21c1.57,0,.86.57,2.71.57a3.26,3.26,0,0,0,3-3.45c0-1.85-1.23-3.65-3-3.65-.94,0-6.85,0-6.85,0,0,.65.07,19.58,0,20a4.26,4.26,0,0,1-4.35,4.12,4.1,4.1,0,0,1-4.22-4.12c-.06-.69,0-22.89,0-23.41a4.29,4.29,0,0,1,4.22-4.4"/></clipPath><clipPath id="clip-path-37"><path class="cls-3" d="M134.29,24.52A5.07,5.07,0,0,1,138.7,27l10.22,24.41a3.25,3.25,0,0,1,.25,1.28,3.78,3.78,0,0,1-3.78,3.78,3.62,3.62,0,0,1-3.52-2.34L140.19,50H128.42l-1.68,4.11a3.62,3.62,0,0,1-3.52,2.34,3.78,3.78,0,0,1-3.78-3.78,3.25,3.25,0,0,1,.25-1.28L129.91,27A5,5,0,0,1,134.29,24.52Zm0,11.66-3.16,7.56h6.33Z"/></clipPath><clipPath id="clip-path-39"><path class="cls-3" d="M188.91,56.44a4.18,4.18,0,0,1-4.26-4.27V32.36c-.2,0-1.88,0-4,0a3.92,3.92,0,0,1,0-7.83l15.79,0a4.26,4.26,0,0,1,4.09,3.9c0,2.8-2,3.95-4.09,3.95H193.2V52.17a4.26,4.26,0,0,1-4.29,4.27"/></clipPath><clipPath id="clip-path-41"><path class="cls-3" d="M90.66,24.56a4.26,4.26,0,0,1,4.21,4.35V52.23a4.31,4.31,0,0,1-4.33,4.21,4.17,4.17,0,0,1-4.18-4.21c0-.09,0-23.39,0-23.39a4.15,4.15,0,0,1,4.29-4.28"/></clipPath><clipPath id="clip-path-43"><path class="cls-3" d="M176.16,50.82a3.58,3.58,0,0,1-2.91,5.66,3.53,3.53,0,0,1-2.83-1.4l-8.71-12a2.71,2.71,0,0,1-.56-1.54,2.59,2.59,0,0,1,2.9-2.57c1.57,0,.34-.06,2.2,0a3.41,3.41,0,0,0,3.27-3.34,3.26,3.26,0,0,0-3.32-3.24c-.95,0-7.19,0-7.19,0,0,.35,0,19.62,0,20a4.25,4.25,0,0,1-4.34,4.12,4,4,0,0,1-4.23-4.05c0-.78,0-23.42,0-23.48a4.32,4.32,0,0,1,4.25-4.4c.5,0,11.06-.05,11.55,0,7.19,0,11,5.18,11,10.29A10,10,0,0,1,171.33,44l5,7.06-.13-.19"/></clipPath></defs><path class="cls-5" d="M198.26,60h6.79l1.54,8.87c.19,1.12.35,2.34.48,3.58A20.1,20.1,0,0,1,208.35,69l4.09-9h6.76l.54,22.89h-5.63L214,71.93c0-1.05,0-2.27.13-3.61a21.75,21.75,0,0,1-1.41,3.39l-5.21,11.14h-3.72l-2.14-11.11c-.19-1-.39-2.14-.55-3.42-.22,1.34-.48,2.56-.76,3.61l-3.17,10.92h-6l7-22.89"/><g class="cls-6"><rect class="cls-2" x="0.1" y="-0.54" width="485" height="109"/><g class="cls-7"><rect class="cls-2" x="186.25" y="54.96" width="38.49" height="32.88"/></g></g><path class="cls-5" d="M231.71,60h7.65l4.87,22.89H238l-.93-4.32h-8l-2.18,4.32h-6.66Zm4.51,13.48-1.05-5.35a17.62,17.62,0,0,1-.32-2.59c-.51,1.44-.87,2.34-1,2.69l-2.43,5.25Z"/><g class="cls-8"><rect class="cls-2" x="0.1" y="-0.54" width="485" height="109"/><g class="cls-7"><rect class="cls-2" x="215.25" y="54.96" width="33.97" height="32.88"/></g></g><g class="cls-9"><path class="cls-5" d="M248.45,60h7l4.83,11.3A21,21,0,0,1,261.57,75v-.58a23.32,23.32,0,0,1,.29-3.23L263.62,60h6.11l-3.61,22.89H259.4L254.28,71.2a20.52,20.52,0,0,1-1.35-3.75v.64a24.06,24.06,0,0,1-.26,3.17L251,82.85h-6.12L248.45,60"/><g class="cls-10"><rect class="cls-2" x="244.1" y="59.46" width="48" height="25"/><g class="cls-11"><rect class="cls-2" x="239.83" y="54.96" width="34.9" height="32.88"/></g></g><path class="cls-5" d="M278.22,60l-1.83,11.49a22.19,22.19,0,0,0-.38,3.36,2.85,2.85,0,0,0,3.13,3.11c3.59,0,4-3.14,5.06-9.64L285.51,60h6.15l-2.05,13a16.71,16.71,0,0,1-1.7,6c-1.69,3-4.86,4.58-9.12,4.58-5.47,0-9-2.85-9-7.17a49.44,49.44,0,0,1,.73-6.62L272.07,60h6.15"/><g class="cls-12"><rect class="cls-2" x="244.1" y="59.46" width="48" height="25"/><g class="cls-11"><rect class="cls-2" x="264.77" y="54.96" width="31.89" height="33.56"/></g></g></g><polyline class="cls-5" points="294.03 59.96 307.25 59.96 306.41 65.21 299.31 65.21 298.7 68.99 305.36 68.99 304.56 73.92 297.93 73.92 296.52 82.85 290.41 82.85 294.03 59.96"/><g class="cls-13"><rect class="cls-2" x="0.1" y="-0.54" width="485" height="109"/><g class="cls-7"><rect class="cls-2" x="285.41" y="54.96" width="26.84" height="32.88"/></g></g><path class="cls-5" d="M313.47,60h7.65L326,82.85h-6.21l-.93-4.32h-8l-2.18,4.32H302ZM318,73.44l-1.06-5.35a17.62,17.62,0,0,1-.32-2.59c-.51,1.44-.86,2.34-1,2.69l-2.44,5.25Z"/><g class="cls-14"><rect class="cls-2" x="0.1" y="-0.54" width="485" height="109"/><g class="cls-7"><rect class="cls-2" x="297.02" y="54.96" width="33.97" height="32.88"/></g></g><path class="cls-5" d="M344.9,67.36a9.23,9.23,0,0,0-6.08-2.31c-3.77,0-6.53,2.91-6.53,7,0,3.68,2.12,5.83,5.93,5.83a13.46,13.46,0,0,0,5.21-1.18l-1,5.92a18.35,18.35,0,0,1-5.63.76c-6.59,0-10.79-4.44-10.79-11.07a13.51,13.51,0,0,1,3-8.61c2.27-2.78,5.76-4.32,10.05-4.32a14.83,14.83,0,0,1,6.85,1.63l-1,6.31"/><g class="cls-15"><rect class="cls-2" x="0.1" y="-0.54" width="485" height="109"/><g class="cls-7"><rect class="cls-2" x="321.05" y="54.42" width="29.88" height="34"/></g></g><g class="cls-9"><polyline class="cls-5" points="352.01 65.28 346.89 65.28 347.75 59.96 363.92 59.96 363.05 65.28 358.15 65.28 355.37 82.85 349.23 82.85 352.01 65.28"/><g class="cls-16"><rect class="cls-2" x="346.1" y="59.46" width="40" height="25"/><g class="cls-17"><rect class="cls-2" x="341.89" y="54.96" width="27.03" height="32.88"/></g></g><path class="cls-5" d="M371.73,60,369.9,71.45a22.19,22.19,0,0,0-.38,3.36,2.85,2.85,0,0,0,3.13,3.11c3.59,0,4-3.14,5.06-9.64L379,60h6.15l-2.05,13a16.71,16.71,0,0,1-1.7,6c-1.69,3-4.86,4.58-9.12,4.58-5.47,0-9-2.85-9-7.17a49.44,49.44,0,0,1,.73-6.62L365.58,60h6.15"/><g class="cls-18"><rect class="cls-2" x="346.1" y="59.46" width="40" height="25"/><g class="cls-17"><rect class="cls-2" x="358.28" y="54.96" width="31.89" height="33.56"/></g></g></g><path class="cls-5" d="M383.92,82.85,387.54,60h6.08c2.65,0,4.73.07,6.43.87a6,6,0,0,1,3.52,5.82c0,3.75-2.33,6.5-6.37,7.17l5.57,9h-7l-4.41-8.74L390,82.85Zm9.95-12.42c2.44,0,3.75-1.15,3.75-3.23s-1.25-2.79-3.81-2.79h-.9l-1,6Z"/><g class="cls-19"><rect class="cls-2" x="0.1" y="-0.54" width="485" height="109"/><g class="cls-7"><rect class="cls-2" x="378.92" y="54.96" width="29.65" height="32.88"/></g></g><polyline class="cls-5" points="407.22 59.96 413.46 59.96 409.84 82.85 403.6 82.85 407.22 59.96"/><g class="cls-20"><rect class="cls-2" x="0.1" y="-0.54" width="485" height="109"/><g class="cls-7"><rect class="cls-2" x="398.6" y="54.96" width="19.86" height="32.88"/></g></g><path class="cls-5" d="M416.05,60h7l4.83,11.3A20.88,20.88,0,0,1,429.18,75v-.58a23.25,23.25,0,0,1,.28-3.23L431.22,60h6.12l-3.62,22.89H427L421.88,71.2a20.52,20.52,0,0,1-1.35-3.75v.64a24.11,24.11,0,0,1-.25,3.17l-1.73,11.59h-6.11L416.05,60"/><g class="cls-21"><rect class="cls-2" x="0.1" y="-0.54" width="485" height="109"/><g class="cls-7"><rect class="cls-2" x="407.44" y="54.96" width="34.9" height="32.88"/></g></g><path class="cls-5" d="M461.31,70.4c-.19,8.25-4.8,13.06-12.1,13.06S437.4,79.14,437.4,72.57a13.46,13.46,0,0,1,3.81-9.5,13,13,0,0,1,9.34-3.62,11.11,11.11,0,0,1,10,5.35l-4.87,3.33a5.49,5.49,0,0,0-5.12-3.08c-3.83,0-6.62,3.11-6.62,7.33,0,3.55,2.21,5.79,5.41,5.79a6.08,6.08,0,0,0,3.2-.83,4.21,4.21,0,0,0,1.76-2.27h-5.22l.74-4.67h11.49"/><g class="cls-22"><rect class="cls-2" x="0.1" y="-0.54" width="485" height="109"/><g class="cls-7"><rect class="cls-2" x="432.4" y="54.45" width="33.91" height="34"/></g></g><polyline class="cls-5" points="98.68 59.99 193.88 59.99 190.96 69.61 98.68 69.61 98.68 59.99"/><g class="cls-23"><rect class="cls-2" x="0.1" y="-0.54" width="485" height="109"/><g class="cls-7"><rect class="cls-2" x="93.68" y="55" width="105.2" height="19.61"/></g></g><polyline class="cls-24" points="98.68 73.16 189.84 73.16 186.91 82.83 98.68 82.84 98.68 73.16"/><g class="cls-25"><rect class="cls-4" x="0.1" y="-0.54" width="485" height="109"/><g class="cls-26"><rect class="cls-4" x="93.68" y="68.16" width="101.16" height="19.68"/></g></g><path class="cls-24" d="M29.46,24.53a4.31,4.31,0,0,1,4.22,4.38c0,.26,0,13.75,0,14.28a4.82,4.82,0,0,0,5,4.79,5.28,5.28,0,0,0,5-4.79c0-.79,0-14.08,0-14.28A4.21,4.21,0,0,1,48,24.51a4.36,4.36,0,0,1,4.27,4.4c0,.17,0,14.3,0,14.3a13.46,13.46,0,0,1-13.5,13.23c-7.31,0-13.61-6-13.61-13.23,0-1,0-14.3,0-14.3a4.33,4.33,0,0,1,4.34-4.38"/><g class="cls-27"><rect class="cls-4" x="0.1" y="-0.54" width="485" height="109"/><g class="cls-26"><rect class="cls-4" x="20.1" y="19.51" width="37.13" height="41.93"/></g></g><path class="cls-24" d="M60.2,24.51a4.16,4.16,0,0,1,3.5,1.85c.16.23,10.13,13.3,10.6,13.85-.06-.34,0-11,0-11.3a4.25,4.25,0,0,1,4.17-4.4,4.33,4.33,0,0,1,4.27,4.4c0,.83,0,0,0,23.28a4.4,4.4,0,0,1-4.36,4.25c-2.17,0-3-1-5.12-4.15-.17-.25-8.38-10.92-8.71-11.55,0,0,.07,10.5,0,11.38a4.35,4.35,0,0,1-4.3,4.36A4.17,4.17,0,0,1,56,52.23c0-23.32,0-.06,0-23.46a4.14,4.14,0,0,1,4.19-4.26"/><g class="cls-28"><rect class="cls-4" x="0.1" y="-0.54" width="485" height="109"/><g class="cls-26"><rect class="cls-4" x="50.98" y="19.51" width="36.77" height="41.97"/></g></g><path class="cls-24" d="M102.71,24.51c.51,0,9.75-.05,10.24,0,7.18,0,11.33,4.72,11.33,11.34,0,6-4.64,10.4-9.61,10.4-3.86,0-6.48-2.38-6.48-4.23a2.94,2.94,0,0,1,3-3.21c1.57,0,.86.57,2.71.57a3.26,3.26,0,0,0,3-3.45c0-1.85-1.23-3.65-3-3.65-.94,0-6.85,0-6.85,0,0,.65.07,19.58,0,20a4.26,4.26,0,0,1-4.35,4.12,4.1,4.1,0,0,1-4.22-4.12c-.06-.69,0-22.89,0-23.41a4.29,4.29,0,0,1,4.22-4.4"/><g class="cls-29"><rect class="cls-4" x="0.1" y="-0.54" width="485" height="109"/><g class="cls-26"><rect class="cls-4" x="93.46" y="19.49" width="35.83" height="41.95"/></g></g><path class="cls-24" d="M134.29,24.52A5.07,5.07,0,0,1,138.7,27l10.22,24.41a3.25,3.25,0,0,1,.25,1.28,3.78,3.78,0,0,1-3.78,3.78,3.62,3.62,0,0,1-3.52-2.34L140.19,50H128.42l-1.68,4.11a3.62,3.62,0,0,1-3.52,2.34,3.78,3.78,0,0,1-3.78-3.78,3.25,3.25,0,0,1,.25-1.28L129.91,27A5,5,0,0,1,134.29,24.52Zm0,11.66-3.16,7.56h6.33Z"/><g class="cls-30"><rect class="cls-4" x="0.1" y="-0.54" width="485" height="109"/><g class="cls-26"><rect class="cls-4" x="114.44" y="19.52" width="39.73" height="41.92"/></g></g><path class="cls-24" d="M188.91,56.44a4.18,4.18,0,0,1-4.26-4.27V32.36c-.2,0-1.88,0-4,0a3.92,3.92,0,0,1,0-7.83l15.79,0a4.26,4.26,0,0,1,4.09,3.9c0,2.8-2,3.95-4.09,3.95H193.2V52.17a4.26,4.26,0,0,1-4.29,4.27"/><g class="cls-31"><rect class="cls-4" x="0.1" y="-0.54" width="485" height="109"/><g class="cls-26"><rect class="cls-4" x="171.77" y="19.51" width="33.74" height="41.93"/></g></g><path class="cls-24" d="M90.66,24.56a4.26,4.26,0,0,1,4.21,4.35V52.23a4.31,4.31,0,0,1-4.33,4.21,4.17,4.17,0,0,1-4.18-4.21c0-.09,0-23.39,0-23.39a4.15,4.15,0,0,1,4.29-4.28"/><g class="cls-32"><rect class="cls-4" x="0.1" y="-0.54" width="485" height="109"/><g class="cls-26"><rect class="cls-4" x="81.36" y="19.56" width="18.5" height="41.88"/></g></g><path class="cls-24" d="M176.16,50.82a3.58,3.58,0,0,1-2.91,5.66,3.53,3.53,0,0,1-2.83-1.4l-8.71-12a2.71,2.71,0,0,1-.56-1.54,2.59,2.59,0,0,1,2.9-2.57c1.57,0,.34-.06,2.2,0a3.41,3.41,0,0,0,3.27-3.34,3.26,3.26,0,0,0-3.32-3.24c-.95,0-7.19,0-7.19,0,0,.35,0,19.62,0,20a4.25,4.25,0,0,1-4.34,4.12,4,4,0,0,1-4.23-4.05c0-.78,0-23.42,0-23.48a4.32,4.32,0,0,1,4.25-4.4c.5,0,11.06-.05,11.55,0,7.19,0,11,5.18,11,10.29A10,10,0,0,1,171.33,44l5,7.06-.13-.19"/><g class="cls-33"><rect class="cls-4" x="0.1" y="-0.54" width="485" height="109"/><g class="cls-26"><rect class="cls-4" x="145.44" y="19.51" width="36.77" height="41.97"/></g></g></svg>